<svg width="14" height="21" viewBox="0 0 14 21" fill="none" xmlns="http://www.w3.org/2000/svg">
<path d="M6.13594 20.3625C4.23281 17.7486 0 11.4134 0 7.85487C0 3.53746 3.13396 0.0375977 7 0.0375977C10.8646 0.0375977 14 3.53746 14 7.85487C14 11.4134 9.73438 17.7486 7.86406 20.3625C7.41562 20.9855 6.58437 20.9855 6.13594 20.3625ZM7 10.4606C8.28698 10.4606 9.33333 9.29211 9.33333 7.85487C9.33333 6.41763 8.28698 5.24911 7 5.24911C5.71302 5.24911 4.66667 6.41763 4.66667 7.85487C4.66667 9.29211 5.71302 10.4606 7 10.4606Z" fill="white"/>
</svg>
