<svg width="32" height="29" viewBox="0 0 32 29" fill="none" xmlns="http://www.w3.org/2000/svg">
<path d="M12.3077 25.9545C12.3077 26.6439 12.0641 27.2405 11.5769 27.7443C11.0897 28.2481 10.5128 28.5 9.84615 28.5C9.17949 28.5 8.60256 28.2481 8.11539 27.7443C7.62821 27.2405 7.38462 26.6439 7.38462 25.9545C7.38462 25.2652 7.62821 24.6686 8.11539 24.1648C8.60256 23.661 9.17949 23.4091 9.84615 23.4091C10.5128 23.4091 11.0897 23.661 11.5769 24.1648C12.0641 24.6686 12.3077 25.2652 12.3077 25.9545ZM29.5385 25.9545C29.5385 26.6439 29.2949 27.2405 28.8077 27.7443C28.3205 28.2481 27.7436 28.5 27.0769 28.5C26.4103 28.5 25.8333 28.2481 25.3462 27.7443C24.859 27.2405 24.6154 26.6439 24.6154 25.9545C24.6154 25.2652 24.859 24.6686 25.3462 24.1648C25.8333 23.661 26.4103 23.4091 27.0769 23.4091C27.7436 23.4091 28.3205 23.661 28.8077 24.1648C29.2949 24.6686 29.5385 25.2652 29.5385 25.9545ZM32 4.31818V14.5C32 14.8182 31.8942 15.0999 31.6827 15.3452C31.4712 15.5904 31.2115 15.733 30.9038 15.7727L10.8269 18.1989C10.9936 18.9943 11.0769 19.4583 11.0769 19.5909C11.0769 19.803 10.9231 20.2273 10.6154 20.8636H28.3077C28.641 20.8636 28.9295 20.9896 29.1731 21.2415C29.4167 21.4934 29.5385 21.7917 29.5385 22.1364C29.5385 22.4811 29.4167 22.7794 29.1731 23.0312C28.9295 23.2831 28.641 23.4091 28.3077 23.4091H8.61539C8.28205 23.4091 7.99359 23.2831 7.75 23.0312C7.50641 22.7794 7.38462 22.4811 7.38462 22.1364C7.38462 21.9905 7.4359 21.7817 7.53846 21.5099C7.64103 21.2382 7.74359 20.9995 7.84615 20.794C7.94872 20.5885 8.08654 20.3234 8.25962 19.9986C8.43269 19.6738 8.53205 19.4782 8.55769 19.4119L5.15385 3.04545H1.23077C0.897436 3.04545 0.608974 2.91951 0.365385 2.66761C0.121795 2.41572 0 2.11742 0 1.77273C0 1.42803 0.121795 1.12973 0.365385 0.877841C0.608974 0.625947 0.897436 0.5 1.23077 0.5H6.15385C6.35897 0.5 6.54167 0.543087 6.70192 0.629261C6.86218 0.715436 6.98718 0.818182 7.07692 0.9375C7.16667 1.05682 7.25 1.21922 7.32692 1.42472C7.40385 1.63021 7.45513 1.80256 7.48077 1.94176C7.50641 2.08097 7.54167 2.27652 7.58654 2.52841C7.63141 2.7803 7.66026 2.95265 7.67308 3.04545H30.7692C31.1026 3.04545 31.391 3.1714 31.6346 3.4233C31.8782 3.67519 32 3.97348 32 4.31818Z" fill="#DA8E00"/>
</svg>
