<svg width="68" height="10" viewBox="0 0 68 10" fill="none" xmlns="http://www.w3.org/2000/svg">
<path d="M10.9832 3.52128L7.73557 3.06505L6.28379 0.220085C6.24414 0.142191 6.17891 0.0791345 6.09832 0.0408059C5.89623 -0.0556336 5.65064 0.0247327 5.54959 0.220085L4.09782 3.06505L0.850196 3.52128C0.76066 3.53365 0.678798 3.57445 0.616122 3.63627C0.54035 3.71155 0.498597 3.81283 0.500036 3.91785C0.501475 4.02287 0.545989 4.12305 0.623796 4.19636L2.97349 6.41076L2.41837 9.53763C2.40535 9.61037 2.41368 9.68517 2.4424 9.75357C2.47113 9.82197 2.51911 9.88121 2.5809 9.92459C2.64269 9.96797 2.71582 9.99375 2.79199 9.999C2.86816 10.0042 2.94434 9.98876 3.01187 9.9543L5.91669 8.47803L8.82152 9.9543C8.90082 9.9951 8.99292 10.0087 9.08117 9.99386C9.30374 9.95677 9.45339 9.75276 9.41502 9.53763L8.85989 6.41076L11.2096 4.19636C11.2735 4.13578 11.3158 4.05665 11.3285 3.9701C11.3631 3.75373 11.207 3.55343 10.9832 3.52128Z" fill="#DA8E00"/>
<path d="M24.8165 3.52128L21.5689 3.06505L20.1171 0.220085C20.0775 0.142191 20.0123 0.0791345 19.9317 0.0408059C19.7296 -0.0556336 19.484 0.0247327 19.3829 0.220085L17.9312 3.06505L14.6835 3.52128C14.594 3.53365 14.5121 3.57445 14.4495 3.63627C14.3737 3.71155 14.3319 3.81283 14.3334 3.91785C14.3348 4.02287 14.3793 4.12305 14.4571 4.19636L16.8068 6.41076L16.2517 9.53763C16.2387 9.61037 16.247 9.68517 16.2757 9.75357C16.3045 9.82197 16.3525 9.88121 16.4142 9.92459C16.476 9.96797 16.5492 9.99375 16.6253 9.999C16.7015 10.0042 16.7777 9.98876 16.8452 9.9543L19.75 8.47803L22.6549 9.9543C22.7342 9.9951 22.8263 10.0087 22.9145 9.99386C23.1371 9.95677 23.2867 9.75276 23.2484 9.53763L22.6932 6.41076L25.0429 4.19636C25.1069 4.13578 25.1491 4.05665 25.1619 3.9701C25.1964 3.75373 25.0404 3.55343 24.8165 3.52128Z" fill="#DA8E00"/>
<path d="M39.4562 3.52128L35.9588 3.06505L34.3954 0.220085C34.3527 0.142191 34.2824 0.0791345 34.1956 0.0408059C33.978 -0.0556336 33.7135 0.0247327 33.6047 0.220085L32.0412 3.06505L28.5438 3.52128C28.4474 3.53365 28.3592 3.57445 28.2917 3.63627C28.2101 3.71155 28.1651 3.81283 28.1667 3.91785C28.1682 4.02287 28.2162 4.12305 28.3 4.19636L30.8304 6.41076L30.2326 9.53763C30.2186 9.61037 30.2275 9.68517 30.2585 9.75357C30.2894 9.82197 30.3411 9.88121 30.4076 9.92459C30.4742 9.96797 30.5529 9.99375 30.635 9.999C30.717 10.0042 30.799 9.98876 30.8717 9.9543L34 8.47803L37.1283 9.9543C37.2137 9.9951 37.3129 10.0087 37.4079 9.99386C37.6476 9.95677 37.8088 9.75276 37.7674 9.53763L37.1696 6.41076L39.7001 4.19636C39.7689 4.13578 39.8144 4.05665 39.8282 3.9701C39.8654 3.75373 39.6973 3.55343 39.4562 3.52128Z" fill="#DA8E00"/>
<path d="M53.3165 3.52128L50.0689 3.06505L48.6171 0.220085C48.5775 0.142191 48.5123 0.0791345 48.4317 0.0408059C48.2296 -0.0556336 47.984 0.0247327 47.8829 0.220085L46.4312 3.06505L43.1835 3.52128C43.094 3.53365 43.0121 3.57445 42.9495 3.63627C42.8737 3.71155 42.8319 3.81283 42.8334 3.91785C42.8348 4.02287 42.8793 4.12305 42.9571 4.19636L45.3068 6.41076L44.7517 9.53763C44.7387 9.61037 44.747 9.68517 44.7757 9.75357C44.8045 9.82197 44.8525 9.88121 44.9142 9.92459C44.976 9.96797 45.0492 9.99375 45.1253 9.999C45.2015 10.0042 45.2777 9.98876 45.3452 9.9543L48.25 8.47803L51.1549 9.9543C51.2342 9.9951 51.3263 10.0087 51.4145 9.99386C51.6371 9.95677 51.7867 9.75276 51.7484 9.53763L51.1932 6.41076L53.5429 4.19636C53.6069 4.13578 53.6491 4.05665 53.6619 3.9701C53.6964 3.75373 53.5404 3.55343 53.3165 3.52128Z" fill="#DA8E00"/>
<path d="M67.1498 3.52128L63.9022 3.06505L62.4504 0.220085C62.4108 0.142191 62.3456 0.0791345 62.265 0.0408059C62.0629 -0.0556336 61.8173 0.0247327 61.7162 0.220085L60.2645 3.06505L57.0169 3.52128C56.9273 3.53365 56.8455 3.57445 56.7828 3.63627C56.707 3.71155 56.6653 3.81283 56.6667 3.91785C56.6681 4.02287 56.7126 4.12305 56.7905 4.19636L59.1402 6.41076L58.585 9.53763C58.572 9.61037 58.5803 9.68517 58.6091 9.75357C58.6378 9.82197 58.6858 9.88121 58.7476 9.92459C58.8093 9.96797 58.8825 9.99375 58.9586 9.999C59.0348 10.0042 59.111 9.98876 59.1785 9.9543L62.0833 8.47803L64.9882 9.9543C65.0675 9.9951 65.1596 10.0087 65.2478 9.99386C65.4704 9.95677 65.62 9.75276 65.5817 9.53763L65.0265 6.41076L67.3762 4.19636C67.4402 4.13578 67.4824 4.05665 67.4952 3.9701C67.5297 3.75373 67.3737 3.55343 67.1498 3.52128Z" fill="#DA8E00"/>
</svg>
