<svg width="245" height="245" viewBox="0 0 245 245" fill="none" xmlns="http://www.w3.org/2000/svg">
<g opacity="0.6">
<rect width="4.11765" height="4.11765" rx="2.05882" fill="#F6B130"/>
<rect y="18.5293" width="4.11765" height="4.11765" rx="2.05882" fill="#F6B130"/>
<rect y="37.0588" width="4.11765" height="4.11765" rx="2.05882" fill="#F6B130"/>
<rect y="55.5884" width="4.11765" height="4.11765" rx="2.05882" fill="#F6B130"/>
<rect y="74.1177" width="4.11765" height="4.11765" rx="2.05882" fill="#F6B130"/>
<rect y="92.647" width="4.11765" height="4.11765" rx="2.05882" fill="#F6B130"/>
<rect y="111.177" width="4.11765" height="4.11765" rx="2.05882" fill="#F6B130"/>
<rect y="129.706" width="4.11765" height="4.11765" rx="2.05882" fill="#F6B130"/>
<rect y="148.235" width="4.11765" height="4.11765" rx="2.05882" fill="#F6B130"/>
<rect y="166.765" width="4.11765" height="4.11765" rx="2.05882" fill="#F6B130"/>
<rect y="185.294" width="4.11765" height="4.11765" rx="2.05882" fill="#F6B130"/>
<rect y="203.823" width="4.11765" height="4.11765" rx="2.05882" fill="#F6B130"/>
<rect y="222.353" width="4.11765" height="4.11765" rx="2.05882" fill="#F6B130"/>
<rect y="240.882" width="4.11765" height="4.11765" rx="2.05882" fill="#F6B130"/>
<rect x="18.5295" width="4.11765" height="4.11765" rx="2.05882" fill="#F6B130"/>
<rect x="18.5295" y="18.5293" width="4.11765" height="4.11765" rx="2.05882" fill="#F6B130"/>
<rect x="18.5295" y="37.0588" width="4.11765" height="4.11765" rx="2.05882" fill="#F6B130"/>
<rect x="18.5295" y="55.5884" width="4.11765" height="4.11765" rx="2.05882" fill="#F6B130"/>
<rect x="18.5295" y="74.1177" width="4.11765" height="4.11765" rx="2.05882" fill="#F6B130"/>
<rect x="18.5295" y="92.647" width="4.11765" height="4.11765" rx="2.05882" fill="#F6B130"/>
<rect x="18.5295" y="111.177" width="4.11765" height="4.11765" rx="2.05882" fill="#F6B130"/>
<rect x="18.5295" y="129.706" width="4.11765" height="4.11765" rx="2.05882" fill="#F6B130"/>
<rect x="18.5295" y="148.235" width="4.11765" height="4.11765" rx="2.05882" fill="#F6B130"/>
<rect x="18.5295" y="166.765" width="4.11765" height="4.11765" rx="2.05882" fill="#F6B130"/>
<rect x="18.5295" y="185.294" width="4.11765" height="4.11765" rx="2.05882" fill="#F6B130"/>
<rect x="18.5295" y="203.823" width="4.11765" height="4.11765" rx="2.05882" fill="#F6B130"/>
<rect x="18.5295" y="222.353" width="4.11765" height="4.11765" rx="2.05882" fill="#F6B130"/>
<rect x="18.5295" y="240.882" width="4.11765" height="4.11765" rx="2.05882" fill="#F6B130"/>
<rect x="37.0588" width="4.11765" height="4.11765" rx="2.05882" fill="#F6B130"/>
<rect x="37.0588" y="18.5293" width="4.11765" height="4.11765" rx="2.05882" fill="#F6B130"/>
<rect x="37.0588" y="37.0588" width="4.11765" height="4.11765" rx="2.05882" fill="#F6B130"/>
<rect x="37.0588" y="55.5884" width="4.11765" height="4.11765" rx="2.05882" fill="#F6B130"/>
<rect x="37.0588" y="74.1177" width="4.11765" height="4.11765" rx="2.05882" fill="#F6B130"/>
<rect x="37.0588" y="92.647" width="4.11765" height="4.11765" rx="2.05882" fill="#F6B130"/>
<rect x="37.0588" y="111.177" width="4.11765" height="4.11765" rx="2.05882" fill="#F6B130"/>
<rect x="37.0588" y="129.706" width="4.11765" height="4.11765" rx="2.05882" fill="#F6B130"/>
<rect x="37.0588" y="148.235" width="4.11765" height="4.11765" rx="2.05882" fill="#F6B130"/>
<rect x="37.0588" y="166.765" width="4.11765" height="4.11765" rx="2.05882" fill="#F6B130"/>
<rect x="37.0588" y="185.294" width="4.11765" height="4.11765" rx="2.05882" fill="#F6B130"/>
<rect x="37.0588" y="203.823" width="4.11765" height="4.11765" rx="2.05882" fill="#F6B130"/>
<rect x="37.0588" y="222.353" width="4.11765" height="4.11765" rx="2.05882" fill="#F6B130"/>
<rect x="37.0588" y="240.882" width="4.11765" height="4.11765" rx="2.05882" fill="#F6B130"/>
<rect x="55.5884" width="4.11765" height="4.11765" rx="2.05882" fill="#F6B130"/>
<rect x="55.5884" y="18.5293" width="4.11765" height="4.11765" rx="2.05882" fill="#F6B130"/>
<rect x="55.5884" y="37.0588" width="4.11765" height="4.11765" rx="2.05882" fill="#F6B130"/>
<rect x="55.5884" y="55.5884" width="4.11765" height="4.11765" rx="2.05882" fill="#F6B130"/>
<rect x="55.5884" y="74.1177" width="4.11765" height="4.11765" rx="2.05882" fill="#F6B130"/>
<rect x="55.5884" y="92.647" width="4.11765" height="4.11765" rx="2.05882" fill="#F6B130"/>
<rect x="55.5884" y="111.177" width="4.11765" height="4.11765" rx="2.05882" fill="#F6B130"/>
<rect x="55.5884" y="129.706" width="4.11765" height="4.11765" rx="2.05882" fill="#F6B130"/>
<rect x="55.5884" y="148.235" width="4.11765" height="4.11765" rx="2.05882" fill="#F6B130"/>
<rect x="55.5884" y="166.765" width="4.11765" height="4.11765" rx="2.05882" fill="#F6B130"/>
<rect x="55.5884" y="185.294" width="4.11765" height="4.11765" rx="2.05882" fill="#F6B130"/>
<rect x="55.5884" y="203.823" width="4.11765" height="4.11765" rx="2.05882" fill="#F6B130"/>
<rect x="55.5884" y="222.353" width="4.11765" height="4.11765" rx="2.05882" fill="#F6B130"/>
<rect x="55.5884" y="240.882" width="4.11765" height="4.11765" rx="2.05882" fill="#F6B130"/>
<rect x="74.1176" width="4.11765" height="4.11765" rx="2.05882" fill="#F6B130"/>
<rect x="74.1176" y="18.5293" width="4.11765" height="4.11765" rx="2.05882" fill="#F6B130"/>
<rect x="74.1176" y="37.0588" width="4.11765" height="4.11765" rx="2.05882" fill="#F6B130"/>
<rect x="74.1176" y="55.5884" width="4.11765" height="4.11765" rx="2.05882" fill="#F6B130"/>
<rect x="74.1176" y="74.1177" width="4.11765" height="4.11765" rx="2.05882" fill="#F6B130"/>
<rect x="74.1176" y="92.647" width="4.11765" height="4.11765" rx="2.05882" fill="#F6B130"/>
<rect x="74.1176" y="111.177" width="4.11765" height="4.11765" rx="2.05882" fill="#F6B130"/>
<rect x="74.1176" y="129.706" width="4.11765" height="4.11765" rx="2.05882" fill="#F6B130"/>
<rect x="74.1176" y="148.235" width="4.11765" height="4.11765" rx="2.05882" fill="#F6B130"/>
<rect x="74.1176" y="166.765" width="4.11765" height="4.11765" rx="2.05882" fill="#F6B130"/>
<rect x="74.1176" y="185.294" width="4.11765" height="4.11765" rx="2.05882" fill="#F6B130"/>
<rect x="74.1176" y="203.823" width="4.11765" height="4.11765" rx="2.05882" fill="#F6B130"/>
<rect x="74.1176" y="222.353" width="4.11765" height="4.11765" rx="2.05882" fill="#F6B130"/>
<rect x="74.1176" y="240.882" width="4.11765" height="4.11765" rx="2.05882" fill="#F6B130"/>
<rect x="92.6471" width="4.11765" height="4.11765" rx="2.05882" fill="#F6B130"/>
<rect x="92.6471" y="18.5293" width="4.11765" height="4.11765" rx="2.05882" fill="#F6B130"/>
<rect x="92.6471" y="37.0588" width="4.11765" height="4.11765" rx="2.05882" fill="#F6B130"/>
<rect x="92.6471" y="55.5884" width="4.11765" height="4.11765" rx="2.05882" fill="#F6B130"/>
<rect x="92.6471" y="74.1177" width="4.11765" height="4.11765" rx="2.05882" fill="#F6B130"/>
<rect x="92.6471" y="92.647" width="4.11765" height="4.11765" rx="2.05882" fill="#F6B130"/>
<rect x="92.6471" y="111.177" width="4.11765" height="4.11765" rx="2.05882" fill="#F6B130"/>
<rect x="92.6471" y="129.706" width="4.11765" height="4.11765" rx="2.05882" fill="#F6B130"/>
<rect x="92.6471" y="148.235" width="4.11765" height="4.11765" rx="2.05882" fill="#F6B130"/>
<rect x="92.6471" y="166.765" width="4.11765" height="4.11765" rx="2.05882" fill="#F6B130"/>
<rect x="92.6471" y="185.294" width="4.11765" height="4.11765" rx="2.05882" fill="#F6B130"/>
<rect x="92.6471" y="203.823" width="4.11765" height="4.11765" rx="2.05882" fill="#F6B130"/>
<rect x="92.6471" y="222.353" width="4.11765" height="4.11765" rx="2.05882" fill="#F6B130"/>
<rect x="92.6471" y="240.882" width="4.11765" height="4.11765" rx="2.05882" fill="#F6B130"/>
<rect x="111.177" width="4.11765" height="4.11765" rx="2.05882" fill="#F6B130"/>
<rect x="111.177" y="18.5293" width="4.11765" height="4.11765" rx="2.05882" fill="#F6B130"/>
<rect x="111.177" y="37.0588" width="4.11765" height="4.11765" rx="2.05882" fill="#F6B130"/>
<rect x="111.177" y="55.5884" width="4.11765" height="4.11765" rx="2.05882" fill="#F6B130"/>
<rect x="111.177" y="74.1177" width="4.11765" height="4.11765" rx="2.05882" fill="#F6B130"/>
<rect x="111.177" y="92.647" width="4.11765" height="4.11765" rx="2.05882" fill="#F6B130"/>
<rect x="111.177" y="111.177" width="4.11765" height="4.11765" rx="2.05882" fill="#F6B130"/>
<rect x="111.177" y="129.706" width="4.11765" height="4.11765" rx="2.05882" fill="#F6B130"/>
<rect x="111.177" y="148.235" width="4.11765" height="4.11765" rx="2.05882" fill="#F6B130"/>
<rect x="111.177" y="166.765" width="4.11765" height="4.11765" rx="2.05882" fill="#F6B130"/>
<rect x="111.177" y="185.294" width="4.11765" height="4.11765" rx="2.05882" fill="#F6B130"/>
<rect x="111.177" y="203.823" width="4.11765" height="4.11765" rx="2.05882" fill="#F6B130"/>
<rect x="111.177" y="222.353" width="4.11765" height="4.11765" rx="2.05882" fill="#F6B130"/>
<rect x="111.177" y="240.882" width="4.11765" height="4.11765" rx="2.05882" fill="#F6B130"/>
<rect x="129.706" width="4.11765" height="4.11765" rx="2.05882" fill="#F6B130"/>
<rect x="129.706" y="18.5293" width="4.11765" height="4.11765" rx="2.05882" fill="#F6B130"/>
<rect x="129.706" y="37.0588" width="4.11765" height="4.11765" rx="2.05882" fill="#F6B130"/>
<rect x="129.706" y="55.5884" width="4.11765" height="4.11765" rx="2.05882" fill="#F6B130"/>
<rect x="129.706" y="74.1177" width="4.11765" height="4.11765" rx="2.05882" fill="#F6B130"/>
<rect x="129.706" y="92.647" width="4.11765" height="4.11765" rx="2.05882" fill="#F6B130"/>
<rect x="129.706" y="111.177" width="4.11765" height="4.11765" rx="2.05882" fill="#F6B130"/>
<rect x="129.706" y="129.706" width="4.11765" height="4.11765" rx="2.05882" fill="#F6B130"/>
<rect x="129.706" y="148.235" width="4.11765" height="4.11765" rx="2.05882" fill="#F6B130"/>
<rect x="129.706" y="166.765" width="4.11765" height="4.11765" rx="2.05882" fill="#F6B130"/>
<rect x="129.706" y="185.294" width="4.11765" height="4.11765" rx="2.05882" fill="#F6B130"/>
<rect x="129.706" y="203.823" width="4.11765" height="4.11765" rx="2.05882" fill="#F6B130"/>
<rect x="129.706" y="222.353" width="4.11765" height="4.11765" rx="2.05882" fill="#F6B130"/>
<rect x="129.706" y="240.882" width="4.11765" height="4.11765" rx="2.05882" fill="#F6B130"/>
<rect x="148.235" width="4.11765" height="4.11765" rx="2.05882" fill="#F6B130"/>
<rect x="148.235" y="18.5293" width="4.11765" height="4.11765" rx="2.05882" fill="#F6B130"/>
<rect x="148.235" y="37.0588" width="4.11765" height="4.11765" rx="2.05882" fill="#F6B130"/>
<rect x="148.235" y="55.5884" width="4.11765" height="4.11765" rx="2.05882" fill="#F6B130"/>
<rect x="148.235" y="74.1177" width="4.11765" height="4.11765" rx="2.05882" fill="#F6B130"/>
<rect x="148.235" y="92.647" width="4.11765" height="4.11765" rx="2.05882" fill="#F6B130"/>
<rect x="148.235" y="111.177" width="4.11765" height="4.11765" rx="2.05882" fill="#F6B130"/>
<rect x="148.235" y="129.706" width="4.11765" height="4.11765" rx="2.05882" fill="#F6B130"/>
<rect x="148.235" y="148.235" width="4.11765" height="4.11765" rx="2.05882" fill="#F6B130"/>
<rect x="148.235" y="166.765" width="4.11765" height="4.11765" rx="2.05882" fill="#F6B130"/>
<rect x="148.235" y="185.294" width="4.11765" height="4.11765" rx="2.05882" fill="#F6B130"/>
<rect x="148.235" y="203.823" width="4.11765" height="4.11765" rx="2.05882" fill="#F6B130"/>
<rect x="148.235" y="222.353" width="4.11765" height="4.11765" rx="2.05882" fill="#F6B130"/>
<rect x="148.235" y="240.882" width="4.11765" height="4.11765" rx="2.05882" fill="#F6B130"/>
<rect x="166.765" width="4.11765" height="4.11765" rx="2.05882" fill="#F6B130"/>
<rect x="166.765" y="18.5293" width="4.11765" height="4.11765" rx="2.05882" fill="#F6B130"/>
<rect x="166.765" y="37.0588" width="4.11765" height="4.11765" rx="2.05882" fill="#F6B130"/>
<rect x="166.765" y="55.5884" width="4.11765" height="4.11765" rx="2.05882" fill="#F6B130"/>
<rect x="166.765" y="74.1177" width="4.11765" height="4.11765" rx="2.05882" fill="#F6B130"/>
<rect x="166.765" y="92.647" width="4.11765" height="4.11765" rx="2.05882" fill="#F6B130"/>
<rect x="166.765" y="111.177" width="4.11765" height="4.11765" rx="2.05882" fill="#F6B130"/>
<rect x="166.765" y="129.706" width="4.11765" height="4.11765" rx="2.05882" fill="#F6B130"/>
<rect x="166.765" y="148.235" width="4.11765" height="4.11765" rx="2.05882" fill="#F6B130"/>
<rect x="166.765" y="166.765" width="4.11765" height="4.11765" rx="2.05882" fill="#F6B130"/>
<rect x="166.765" y="185.294" width="4.11765" height="4.11765" rx="2.05882" fill="#F6B130"/>
<rect x="166.765" y="203.823" width="4.11765" height="4.11765" rx="2.05882" fill="#F6B130"/>
<rect x="166.765" y="222.353" width="4.11765" height="4.11765" rx="2.05882" fill="#F6B130"/>
<rect x="166.765" y="240.882" width="4.11765" height="4.11765" rx="2.05882" fill="#F6B130"/>
<rect x="185.294" width="4.11765" height="4.11765" rx="2.05882" fill="#F6B130"/>
<rect x="185.294" y="18.5293" width="4.11765" height="4.11765" rx="2.05882" fill="#F6B130"/>
<rect x="185.294" y="37.0588" width="4.11765" height="4.11765" rx="2.05882" fill="#F6B130"/>
<rect x="185.294" y="55.5884" width="4.11765" height="4.11765" rx="2.05882" fill="#F6B130"/>
<rect x="185.294" y="74.1177" width="4.11765" height="4.11765" rx="2.05882" fill="#F6B130"/>
<rect x="185.294" y="92.647" width="4.11765" height="4.11765" rx="2.05882" fill="#F6B130"/>
<rect x="185.294" y="111.177" width="4.11765" height="4.11765" rx="2.05882" fill="#F6B130"/>
<rect x="185.294" y="129.706" width="4.11765" height="4.11765" rx="2.05882" fill="#F6B130"/>
<rect x="185.294" y="148.235" width="4.11765" height="4.11765" rx="2.05882" fill="#F6B130"/>
<rect x="185.294" y="166.765" width="4.11765" height="4.11765" rx="2.05882" fill="#F6B130"/>
<rect x="185.294" y="185.294" width="4.11765" height="4.11765" rx="2.05882" fill="#F6B130"/>
<rect x="185.294" y="203.823" width="4.11765" height="4.11765" rx="2.05882" fill="#F6B130"/>
<rect x="185.294" y="222.353" width="4.11765" height="4.11765" rx="2.05882" fill="#F6B130"/>
<rect x="185.294" y="240.882" width="4.11765" height="4.11765" rx="2.05882" fill="#F6B130"/>
<rect x="203.823" width="4.11765" height="4.11765" rx="2.05882" fill="#F6B130"/>
<rect x="203.823" y="18.5293" width="4.11765" height="4.11765" rx="2.05882" fill="#F6B130"/>
<rect x="203.823" y="37.0588" width="4.11765" height="4.11765" rx="2.05882" fill="#F6B130"/>
<rect x="203.823" y="55.5884" width="4.11765" height="4.11765" rx="2.05882" fill="#F6B130"/>
<rect x="203.823" y="74.1177" width="4.11765" height="4.11765" rx="2.05882" fill="#F6B130"/>
<rect x="203.823" y="92.647" width="4.11765" height="4.11765" rx="2.05882" fill="#F6B130"/>
<rect x="203.823" y="111.177" width="4.11765" height="4.11765" rx="2.05882" fill="#F6B130"/>
<rect x="203.823" y="129.706" width="4.11765" height="4.11765" rx="2.05882" fill="#F6B130"/>
<rect x="203.823" y="148.235" width="4.11765" height="4.11765" rx="2.05882" fill="#F6B130"/>
<rect x="203.823" y="166.765" width="4.11765" height="4.11765" rx="2.05882" fill="#F6B130"/>
<rect x="203.823" y="185.294" width="4.11765" height="4.11765" rx="2.05882" fill="#F6B130"/>
<rect x="203.823" y="203.823" width="4.11765" height="4.11765" rx="2.05882" fill="#F6B130"/>
<rect x="203.823" y="222.353" width="4.11765" height="4.11765" rx="2.05882" fill="#F6B130"/>
<rect x="203.823" y="240.882" width="4.11765" height="4.11765" rx="2.05882" fill="#F6B130"/>
<rect x="222.353" width="4.11765" height="4.11765" rx="2.05882" fill="#F6B130"/>
<rect x="222.353" y="18.5293" width="4.11765" height="4.11765" rx="2.05882" fill="#F6B130"/>
<rect x="222.353" y="37.0588" width="4.11765" height="4.11765" rx="2.05882" fill="#F6B130"/>
<rect x="222.353" y="55.5884" width="4.11765" height="4.11765" rx="2.05882" fill="#F6B130"/>
<rect x="222.353" y="74.1177" width="4.11765" height="4.11765" rx="2.05882" fill="#F6B130"/>
<rect x="222.353" y="92.647" width="4.11765" height="4.11765" rx="2.05882" fill="#F6B130"/>
<rect x="222.353" y="111.177" width="4.11765" height="4.11765" rx="2.05882" fill="#F6B130"/>
<rect x="222.353" y="129.706" width="4.11765" height="4.11765" rx="2.05882" fill="#F6B130"/>
<rect x="222.353" y="148.235" width="4.11765" height="4.11765" rx="2.05882" fill="#F6B130"/>
<rect x="222.353" y="166.765" width="4.11765" height="4.11765" rx="2.05882" fill="#F6B130"/>
<rect x="222.353" y="185.294" width="4.11765" height="4.11765" rx="2.05882" fill="#F6B130"/>
<rect x="222.353" y="203.823" width="4.11765" height="4.11765" rx="2.05882" fill="#F6B130"/>
<rect x="222.353" y="222.353" width="4.11765" height="4.11765" rx="2.05882" fill="#F6B130"/>
<rect x="222.353" y="240.882" width="4.11765" height="4.11765" rx="2.05882" fill="#F6B130"/>
<rect x="240.882" width="4.11765" height="4.11765" rx="2.05882" fill="#F6B130"/>
<rect x="240.882" y="18.5293" width="4.11765" height="4.11765" rx="2.05882" fill="#F6B130"/>
<rect x="240.882" y="37.0588" width="4.11765" height="4.11765" rx="2.05882" fill="#F6B130"/>
<rect x="240.882" y="55.5884" width="4.11765" height="4.11765" rx="2.05882" fill="#F6B130"/>
<rect x="240.882" y="74.1177" width="4.11765" height="4.11765" rx="2.05882" fill="#F6B130"/>
<rect x="240.882" y="92.647" width="4.11765" height="4.11765" rx="2.05882" fill="#F6B130"/>
<rect x="240.882" y="111.177" width="4.11765" height="4.11765" rx="2.05882" fill="#F6B130"/>
<rect x="240.882" y="129.706" width="4.11765" height="4.11765" rx="2.05882" fill="#F6B130"/>
<rect x="240.882" y="148.235" width="4.11765" height="4.11765" rx="2.05882" fill="#F6B130"/>
<rect x="240.882" y="166.765" width="4.11765" height="4.11765" rx="2.05882" fill="#F6B130"/>
<rect x="240.882" y="185.294" width="4.11765" height="4.11765" rx="2.05882" fill="#F6B130"/>
<rect x="240.882" y="203.823" width="4.11765" height="4.11765" rx="2.05882" fill="#F6B130"/>
<rect x="240.882" y="222.353" width="4.11765" height="4.11765" rx="2.05882" fill="#F6B130"/>
<rect x="240.882" y="240.882" width="4.11765" height="4.11765" rx="2.05882" fill="#F6B130"/>
</g>
</svg>
