<svg width="43" height="43" viewBox="0 0 43 43" fill="none" xmlns="http://www.w3.org/2000/svg">
<path d="M43 21.5C43 33.3741 33.3741 43 21.5 43C9.62588 43 0 33.3741 0 21.5C0 9.62588 9.62588 0 21.5 0C33.3741 0 43 9.62588 43 21.5Z" fill="white"/>
<path d="M14.6464 21.6464C14.4512 21.8417 14.4512 22.1583 14.6464 22.3536L17.8284 25.5355C18.0237 25.7308 18.3403 25.7308 18.5355 25.5355C18.7308 25.3403 18.7308 25.0237 18.5355 24.8284L15.7071 22L18.5355 19.1716C18.7308 18.9763 18.7308 18.6597 18.5355 18.4645C18.3403 18.2692 18.0237 18.2692 17.8284 18.4645L14.6464 21.6464ZM29 21.5H22V22.5H29V21.5ZM22 21.5H15V22.5H22V21.5Z" fill="#2B2B2B"/>
</svg>
