<svg width="640" height="31" viewBox="0 0 640 31" fill="none" xmlns="http://www.w3.org/2000/svg">
<path d="M0.507656 30V0.839998H10.2997C12.0517 0.839998 13.4917 1.176 14.6197 1.848C15.7477 2.496 16.5877 3.456 17.1397 4.728C17.6917 5.976 17.9677 7.5 17.9677 9.3C17.9677 11.556 17.5957 13.284 16.8517 14.484C16.1077 15.66 15.0997 16.476 13.8277 16.932C12.5557 17.388 11.1277 17.616 9.54366 17.616H6.95166V30H0.507656ZM6.95166 13.116H9.11166C9.90366 13.116 10.5037 12.972 10.9117 12.684C11.3197 12.396 11.5837 11.964 11.7037 11.388C11.8477 10.812 11.9197 10.08 11.9197 9.192C11.9197 8.448 11.8597 7.8 11.7397 7.248C11.6437 6.672 11.3917 6.216 10.9837 5.88C10.5757 5.544 9.93966 5.376 9.07566 5.376H6.95166V13.116ZM21.0741 30V0.839998H29.1021C31.0701 0.839998 32.7741 1.056 34.2141 1.488C35.6541 1.92 36.7701 2.7 37.5621 3.828C38.3781 4.932 38.7861 6.504 38.7861 8.544C38.7861 9.744 38.6901 10.812 38.4981 11.748C38.3061 12.684 37.9461 13.5 37.4181 14.196C36.9141 14.868 36.1821 15.432 35.2221 15.888L39.2181 30H32.5581L29.3541 16.932H27.5181V30H21.0741ZM27.5181 13.224H29.3181C30.2301 13.224 30.9381 13.068 31.4421 12.756C31.9461 12.42 32.2941 11.952 32.4861 11.352C32.7021 10.728 32.8101 9.984 32.8101 9.12C32.8101 7.872 32.5821 6.9 32.1261 6.204C31.6701 5.508 30.8301 5.16 29.6061 5.16H27.5181V13.224ZM50.7308 30.432C48.5468 30.432 46.8188 30.048 45.5468 29.28C44.2748 28.512 43.3628 27.408 42.8108 25.968C42.2588 24.528 41.9828 22.812 41.9828 20.82V9.984C41.9828 7.968 42.2588 6.252 42.8108 4.836C43.3628 3.42 44.2748 2.34 45.5468 1.596C46.8188 0.827999 48.5468 0.443999 50.7308 0.443999C52.9388 0.443999 54.6788 0.827999 55.9508 1.596C57.2468 2.34 58.1708 3.42 58.7227 4.836C59.2747 6.252 59.5508 7.968 59.5508 9.984V20.82C59.5508 22.812 59.2747 24.528 58.7227 25.968C58.1708 27.408 57.2468 28.512 55.9508 29.28C54.6788 30.048 52.9388 30.432 50.7308 30.432ZM50.7308 25.86C51.4028 25.86 51.8948 25.692 52.2068 25.356C52.5188 25.02 52.7228 24.588 52.8188 24.06C52.9148 23.532 52.9628 22.992 52.9628 22.44V8.4C52.9628 7.824 52.9148 7.284 52.8188 6.78C52.7228 6.252 52.5188 5.82 52.2068 5.484C51.8948 5.148 51.4028 4.98 50.7308 4.98C50.1068 4.98 49.6388 5.148 49.3268 5.484C49.0148 5.82 48.8108 6.252 48.7148 6.78C48.6188 7.284 48.5708 7.824 48.5708 8.4V22.44C48.5708 22.992 48.6068 23.532 48.6788 24.06C48.7748 24.588 48.9668 25.02 49.2548 25.356C49.5668 25.692 50.0588 25.86 50.7308 25.86ZM63.4725 30V0.839998H76.0725V5.196H69.9165V12.54H75.2805V17.04H69.9165V30H63.4725ZM79.0819 30V0.839998H92.1859V5.232H85.5259V12.468H90.6019V16.932H85.5259V25.644H92.2579V30H79.0819ZM102.923 30.432C101.099 30.432 99.5754 30.108 98.3514 29.46C97.1274 28.812 96.2034 27.816 95.5794 26.472C94.9554 25.104 94.6074 23.34 94.5354 21.18L100.043 20.352C100.067 21.6 100.175 22.608 100.367 23.376C100.583 24.144 100.871 24.696 101.231 25.032C101.615 25.368 102.071 25.536 102.599 25.536C103.271 25.536 103.703 25.308 103.895 24.852C104.111 24.396 104.219 23.916 104.219 23.412C104.219 22.212 103.931 21.204 103.355 20.388C102.779 19.548 101.999 18.708 101.015 17.868L98.4954 15.672C97.3914 14.736 96.4554 13.68 95.6874 12.504C94.9434 11.304 94.5714 9.828 94.5714 8.076C94.5714 5.604 95.3034 3.72 96.7674 2.424C98.2314 1.104 100.223 0.443999 102.743 0.443999C104.303 0.443999 105.551 0.707999 106.487 1.236C107.447 1.764 108.167 2.46 108.647 3.324C109.151 4.164 109.487 5.064 109.655 6.024C109.847 6.96 109.955 7.86 109.979 8.724L104.435 9.408C104.411 8.544 104.351 7.8 104.255 7.176C104.183 6.528 104.015 6.036 103.751 5.7C103.487 5.34 103.079 5.16 102.527 5.16C101.927 5.16 101.483 5.412 101.195 5.916C100.931 6.42 100.799 6.924 100.799 7.428C100.799 8.508 101.051 9.396 101.555 10.092C102.083 10.764 102.767 11.472 103.607 12.216L106.019 14.34C107.291 15.42 108.359 16.644 109.223 18.012C110.111 19.38 110.555 21.072 110.555 23.088C110.555 24.456 110.243 25.704 109.619 26.832C108.995 27.936 108.107 28.812 106.955 29.46C105.827 30.108 104.483 30.432 102.923 30.432ZM120.818 30.432C118.994 30.432 117.47 30.108 116.246 29.46C115.022 28.812 114.098 27.816 113.474 26.472C112.85 25.104 112.502 23.34 112.43 21.18L117.938 20.352C117.962 21.6 118.07 22.608 118.262 23.376C118.478 24.144 118.766 24.696 119.126 25.032C119.51 25.368 119.966 25.536 120.494 25.536C121.166 25.536 121.598 25.308 121.79 24.852C122.006 24.396 122.114 23.916 122.114 23.412C122.114 22.212 121.826 21.204 121.25 20.388C120.674 19.548 119.894 18.708 118.91 17.868L116.39 15.672C115.286 14.736 114.35 13.68 113.582 12.504C112.838 11.304 112.466 9.828 112.466 8.076C112.466 5.604 113.198 3.72 114.662 2.424C116.126 1.104 118.118 0.443999 120.638 0.443999C122.198 0.443999 123.446 0.707999 124.382 1.236C125.342 1.764 126.062 2.46 126.542 3.324C127.046 4.164 127.382 5.064 127.55 6.024C127.742 6.96 127.85 7.86 127.874 8.724L122.33 9.408C122.306 8.544 122.246 7.8 122.15 7.176C122.078 6.528 121.91 6.036 121.646 5.7C121.382 5.34 120.974 5.16 120.422 5.16C119.822 5.16 119.378 5.412 119.09 5.916C118.826 6.42 118.694 6.924 118.694 7.428C118.694 8.508 118.946 9.396 119.45 10.092C119.978 10.764 120.662 11.472 121.502 12.216L123.914 14.34C125.186 15.42 126.254 16.644 127.118 18.012C128.006 19.38 128.45 21.072 128.45 23.088C128.45 24.456 128.138 25.704 127.514 26.832C126.89 27.936 126.002 28.812 124.85 29.46C123.722 30.108 122.378 30.432 120.818 30.432ZM131.606 30V0.839998H138.05V30H131.606ZM150.75 30.432C148.566 30.432 146.838 30.048 145.566 29.28C144.294 28.512 143.382 27.408 142.83 25.968C142.278 24.528 142.002 22.812 142.002 20.82V9.984C142.002 7.968 142.278 6.252 142.83 4.836C143.382 3.42 144.294 2.34 145.566 1.596C146.838 0.827999 148.566 0.443999 150.75 0.443999C152.958 0.443999 154.698 0.827999 155.97 1.596C157.266 2.34 158.19 3.42 158.742 4.836C159.294 6.252 159.57 7.968 159.57 9.984V20.82C159.57 22.812 159.294 24.528 158.742 25.968C158.19 27.408 157.266 28.512 155.97 29.28C154.698 30.048 152.958 30.432 150.75 30.432ZM150.75 25.86C151.422 25.86 151.914 25.692 152.226 25.356C152.538 25.02 152.742 24.588 152.838 24.06C152.934 23.532 152.982 22.992 152.982 22.44V8.4C152.982 7.824 152.934 7.284 152.838 6.78C152.742 6.252 152.538 5.82 152.226 5.484C151.914 5.148 151.422 4.98 150.75 4.98C150.126 4.98 149.658 5.148 149.346 5.484C149.034 5.82 148.83 6.252 148.734 6.78C148.638 7.284 148.59 7.824 148.59 8.4V22.44C148.59 22.992 148.626 23.532 148.698 24.06C148.794 24.588 148.986 25.02 149.274 25.356C149.586 25.692 150.078 25.86 150.75 25.86ZM163.492 30V0.839998H168.028L174.004 14.88V0.839998H179.332V30H174.976L169 14.88V30H163.492ZM182.268 30L187.776 0.839998H195.12L200.556 30H194.616L193.644 23.844H189.36L188.352 30H182.268ZM189.936 19.992H193.032L191.484 8.616L189.936 19.992ZM203.5 30V0.839998H209.944V25.644H216.64V30H203.5Z" fill="white"/>
<path d="M227.268 30L232.776 0.839998H240.12L245.556 30H239.616L238.644 23.844H234.36L233.352 30H227.268ZM234.936 19.992H238.032L236.484 8.616L234.936 19.992ZM249.511 30V5.628H245.119V0.839998H260.347V5.628H255.991V30H249.511ZM263.022 30V0.839998H269.466V12.648H274.002V0.839998H280.446V30H274.002V17.256H269.466V30H263.022ZM284.887 30V0.839998H291.331V25.644H298.027V30H284.887ZM300.848 30V0.839998H313.952V5.232H307.292V12.468H312.368V16.932H307.292V25.644H314.024V30H300.848ZM319.577 30V5.628H315.185V0.839998H330.413V5.628H326.057V30H319.577ZM332.98 30V0.839998H346.084V5.232H339.424V12.468H344.5V16.932H339.424V25.644H346.156V30H332.98ZM356.822 30.432C354.998 30.432 353.474 30.108 352.25 29.46C351.026 28.812 350.102 27.816 349.478 26.472C348.854 25.104 348.506 23.34 348.434 21.18L353.942 20.352C353.966 21.6 354.074 22.608 354.266 23.376C354.482 24.144 354.77 24.696 355.13 25.032C355.514 25.368 355.97 25.536 356.498 25.536C357.17 25.536 357.602 25.308 357.794 24.852C358.01 24.396 358.118 23.916 358.118 23.412C358.118 22.212 357.83 21.204 357.254 20.388C356.678 19.548 355.898 18.708 354.914 17.868L352.394 15.672C351.29 14.736 350.354 13.68 349.586 12.504C348.842 11.304 348.47 9.828 348.47 8.076C348.47 5.604 349.202 3.72 350.666 2.424C352.13 1.104 354.122 0.443999 356.642 0.443999C358.202 0.443999 359.45 0.707999 360.386 1.236C361.346 1.764 362.066 2.46 362.546 3.324C363.05 4.164 363.386 5.064 363.554 6.024C363.746 6.96 363.854 7.86 363.878 8.724L358.334 9.408C358.31 8.544 358.25 7.8 358.154 7.176C358.082 6.528 357.914 6.036 357.65 5.7C357.386 5.34 356.978 5.16 356.426 5.16C355.826 5.16 355.382 5.412 355.094 5.916C354.83 6.42 354.698 6.924 354.698 7.428C354.698 8.508 354.95 9.396 355.454 10.092C355.982 10.764 356.666 11.472 357.506 12.216L359.918 14.34C361.19 15.42 362.258 16.644 363.122 18.012C364.01 19.38 364.454 21.072 364.454 23.088C364.454 24.456 364.142 25.704 363.518 26.832C362.894 27.936 362.006 28.812 360.854 29.46C359.726 30.108 358.382 30.432 356.822 30.432ZM375.381 30L380.889 0.839998H388.233L393.669 30H387.729L386.757 23.844H382.473L381.465 30H375.381ZM383.049 19.992H386.145L384.597 8.616L383.049 19.992ZM396.613 30V0.839998H401.149L407.125 14.88V0.839998H412.453V30H408.097L402.121 14.88V30H396.613ZM416.793 30V0.839998H424.173C426.717 0.839998 428.697 1.164 430.113 1.812C431.529 2.436 432.525 3.432 433.101 4.8C433.677 6.144 433.965 7.896 433.965 10.056V20.64C433.965 22.824 433.677 24.612 433.101 26.004C432.525 27.372 431.529 28.38 430.113 29.028C428.721 29.676 426.765 30 424.245 30H416.793ZM423.237 25.536H424.245C425.229 25.536 425.937 25.392 426.369 25.104C426.801 24.816 427.065 24.384 427.161 23.808C427.281 23.232 427.341 22.512 427.341 21.648V8.94C427.341 8.076 427.269 7.38 427.125 6.852C427.005 6.324 426.729 5.94 426.297 5.7C425.865 5.46 425.169 5.34 424.209 5.34H423.237V25.536ZM447.134 30V0.839998H453.578V30H447.134ZM457.926 30V0.839998H462.462L468.438 14.88V0.839998H473.766V30H469.41L463.434 14.88V30H457.926ZM478.105 30V0.839998H490.705V5.196H484.549V12.54H489.913V17.04H484.549V30H478.105ZM493.715 30V0.839998H500.159V25.644H506.855V30H493.715ZM517.467 30.432C515.235 30.432 513.483 30.072 512.211 29.352C510.963 28.608 510.087 27.54 509.583 26.148C509.079 24.732 508.827 23.004 508.827 20.964V0.839998H515.199V21.936C515.199 22.536 515.247 23.136 515.343 23.736C515.439 24.336 515.643 24.828 515.955 25.212C516.291 25.596 516.795 25.788 517.467 25.788C518.163 25.788 518.667 25.596 518.979 25.212C519.291 24.828 519.483 24.336 519.555 23.736C519.651 23.136 519.699 22.536 519.699 21.936V0.839998H526.107V20.964C526.107 23.004 525.843 24.732 525.315 26.148C524.811 27.54 523.935 28.608 522.687 29.352C521.439 30.072 519.699 30.432 517.467 30.432ZM530.207 30V0.839998H543.311V5.232H536.651V12.468H541.727V16.932H536.651V25.644H543.383V30H530.207ZM546.308 30V0.839998H550.844L556.82 14.88V0.839998H562.148V30H557.792L551.816 14.88V30H546.308ZM574.84 30.432C572.632 30.432 570.88 30.036 569.584 29.244C568.312 28.428 567.412 27.3 566.884 25.86C566.356 24.396 566.092 22.68 566.092 20.712V10.2C566.092 8.184 566.356 6.456 566.884 5.016C567.412 3.552 568.312 2.424 569.584 1.632C570.88 0.839998 572.632 0.443999 574.84 0.443999C577 0.443999 578.68 0.803999 579.88 1.524C581.104 2.22 581.968 3.204 582.472 4.476C582.976 5.748 583.228 7.212 583.228 8.868V11.388H576.928V8.472C576.928 7.896 576.892 7.344 576.82 6.816C576.772 6.288 576.604 5.856 576.316 5.52C576.028 5.16 575.536 4.98 574.84 4.98C574.168 4.98 573.664 5.16 573.328 5.52C573.016 5.88 572.812 6.336 572.716 6.888C572.644 7.416 572.608 7.98 572.608 8.58V22.296C572.608 22.944 572.656 23.544 572.752 24.096C572.872 24.624 573.088 25.056 573.4 25.392C573.736 25.704 574.216 25.86 574.84 25.86C575.512 25.86 575.992 25.692 576.28 25.356C576.568 24.996 576.748 24.54 576.82 23.988C576.892 23.436 576.928 22.872 576.928 22.296V19.236H583.228V21.756C583.228 23.412 582.976 24.9 582.472 26.22C581.992 27.516 581.14 28.548 579.916 29.316C578.716 30.06 577.024 30.432 574.84 30.432ZM586.773 30V0.839998H599.877V5.232H593.217V12.468H598.293V16.932H593.217V25.644H599.949V30H586.773ZM602.875 30V0.839998H610.903C612.871 0.839998 614.575 1.056 616.015 1.488C617.455 1.92 618.571 2.7 619.363 3.828C620.179 4.932 620.587 6.504 620.587 8.544C620.587 9.744 620.491 10.812 620.299 11.748C620.107 12.684 619.747 13.5 619.219 14.196C618.715 14.868 617.983 15.432 617.023 15.888L621.019 30H614.359L611.155 16.932H609.319V30H602.875ZM609.319 13.224H611.119C612.031 13.224 612.739 13.068 613.243 12.756C613.747 12.42 614.095 11.952 614.287 11.352C614.503 10.728 614.611 9.984 614.611 9.12C614.611 7.872 614.383 6.9 613.927 6.204C613.471 5.508 612.631 5.16 611.407 5.16H609.319V13.224ZM632.06 30.432C630.236 30.432 628.712 30.108 627.488 29.46C626.264 28.812 625.34 27.816 624.716 26.472C624.092 25.104 623.744 23.34 623.672 21.18L629.18 20.352C629.204 21.6 629.312 22.608 629.504 23.376C629.72 24.144 630.008 24.696 630.368 25.032C630.752 25.368 631.208 25.536 631.736 25.536C632.408 25.536 632.84 25.308 633.032 24.852C633.248 24.396 633.356 23.916 633.356 23.412C633.356 22.212 633.068 21.204 632.492 20.388C631.916 19.548 631.136 18.708 630.152 17.868L627.632 15.672C626.528 14.736 625.592 13.68 624.824 12.504C624.08 11.304 623.708 9.828 623.708 8.076C623.708 5.604 624.44 3.72 625.904 2.424C627.368 1.104 629.36 0.443999 631.88 0.443999C633.44 0.443999 634.688 0.707999 635.624 1.236C636.584 1.764 637.304 2.46 637.784 3.324C638.288 4.164 638.624 5.064 638.792 6.024C638.984 6.96 639.092 7.86 639.116 8.724L633.572 9.408C633.548 8.544 633.488 7.8 633.392 7.176C633.32 6.528 633.152 6.036 632.888 5.7C632.624 5.34 632.216 5.16 631.664 5.16C631.064 5.16 630.62 5.412 630.332 5.916C630.068 6.42 629.936 6.924 629.936 7.428C629.936 8.508 630.188 9.396 630.692 10.092C631.22 10.764 631.904 11.472 632.744 12.216L635.156 14.34C636.428 15.42 637.496 16.644 638.36 18.012C639.248 19.38 639.692 21.072 639.692 23.088C639.692 24.456 639.38 25.704 638.756 26.832C638.132 27.936 637.244 28.812 636.092 29.46C634.964 30.108 633.62 30.432 632.06 30.432Z" fill="#DA8E00"/>
</svg>
