<svg width="43" height="43" viewBox="0 0 43 43" fill="none" xmlns="http://www.w3.org/2000/svg">
<circle cx="21.5" cy="21.5" r="21.5" transform="rotate(-180 21.5 21.5)" fill="white"/>
<path d="M28.3536 22.3536C28.5488 22.1583 28.5488 21.8417 28.3536 21.6464L25.1716 18.4645C24.9763 18.2692 24.6597 18.2692 24.4645 18.4645C24.2692 18.6597 24.2692 18.9763 24.4645 19.1716L27.2929 22L24.4645 24.8284C24.2692 25.0237 24.2692 25.3403 24.4645 25.5355C24.6597 25.7308 24.9763 25.7308 25.1716 25.5355L28.3536 22.3536ZM14 22.5L21 22.5L21 21.5L14 21.5L14 22.5ZM21 22.5L28 22.5L28 21.5L21 21.5L21 22.5Z" fill="#2B2B2B"/>
</svg>
