<svg width="186" height="224" viewBox="0 0 186 224" fill="none" xmlns="http://www.w3.org/2000/svg">
<rect x="97.902" width="3.74885" height="3.7526" rx="1.87443" fill="#2B2B2B"/>
<rect x="97.902" y="16.8867" width="3.74885" height="3.7526" rx="1.87443" fill="#2B2B2B"/>
<rect x="97.902" y="33.7734" width="3.74885" height="3.7526" rx="1.87443" fill="#2B2B2B"/>
<rect x="97.902" y="50.6602" width="3.74885" height="3.7526" rx="1.87443" fill="#2B2B2B"/>
<rect x="97.902" y="67.5469" width="3.74885" height="3.7526" rx="1.87443" fill="#2B2B2B"/>
<rect x="97.902" y="84.4336" width="3.74885" height="3.7526" rx="1.87443" fill="#2B2B2B"/>
<rect x="97.902" y="101.32" width="3.74885" height="3.7526" rx="1.87443" fill="#2B2B2B"/>
<rect x="97.902" y="118.207" width="3.74885" height="3.7526" rx="1.87443" fill="#2B2B2B"/>
<rect x="97.902" y="135.094" width="3.74885" height="3.7526" rx="1.87443" fill="#2B2B2B"/>
<rect x="97.902" y="151.98" width="3.74885" height="3.7526" rx="1.87443" fill="#2B2B2B"/>
<rect x="97.902" y="168.867" width="3.74885" height="3.7526" rx="1.87443" fill="#2B2B2B"/>
<rect x="97.902" y="185.754" width="3.74885" height="3.7526" rx="1.87443" fill="#2B2B2B"/>
<rect x="97.902" y="202.641" width="3.74885" height="3.7526" rx="1.87443" fill="#2B2B2B"/>
<rect x="97.902" y="219.527" width="3.74885" height="3.7526" rx="1.87443" fill="#2B2B2B"/>
<rect x="114.772" width="3.74885" height="3.7526" rx="1.87443" fill="#2B2B2B"/>
<rect x="114.772" y="16.8867" width="3.74885" height="3.7526" rx="1.87443" fill="#2B2B2B"/>
<rect x="114.772" y="33.7734" width="3.74885" height="3.7526" rx="1.87443" fill="#2B2B2B"/>
<rect x="114.772" y="50.6602" width="3.74885" height="3.7526" rx="1.87443" fill="#2B2B2B"/>
<rect x="114.772" y="67.5469" width="3.74885" height="3.7526" rx="1.87443" fill="#2B2B2B"/>
<rect x="114.772" y="84.4336" width="3.74885" height="3.7526" rx="1.87443" fill="#2B2B2B"/>
<rect x="114.772" y="101.32" width="3.74885" height="3.7526" rx="1.87443" fill="#2B2B2B"/>
<rect x="114.772" y="118.207" width="3.74885" height="3.7526" rx="1.87443" fill="#2B2B2B"/>
<rect x="114.772" y="135.094" width="3.74885" height="3.7526" rx="1.87443" fill="#2B2B2B"/>
<rect x="114.772" y="151.98" width="3.74885" height="3.7526" rx="1.87443" fill="#2B2B2B"/>
<rect x="114.772" y="168.867" width="3.74885" height="3.7526" rx="1.87443" fill="#2B2B2B"/>
<rect x="114.772" y="185.754" width="3.74885" height="3.7526" rx="1.87443" fill="#2B2B2B"/>
<rect x="114.772" y="202.641" width="3.74885" height="3.7526" rx="1.87443" fill="#2B2B2B"/>
<rect x="114.772" y="219.527" width="3.74885" height="3.7526" rx="1.87443" fill="#2B2B2B"/>
<rect x="131.642" width="3.74885" height="3.7526" rx="1.87443" fill="#2B2B2B"/>
<rect x="131.642" y="16.8867" width="3.74885" height="3.7526" rx="1.87443" fill="#2B2B2B"/>
<rect x="131.642" y="33.7734" width="3.74885" height="3.7526" rx="1.87443" fill="#2B2B2B"/>
<rect x="131.642" y="50.6602" width="3.74885" height="3.7526" rx="1.87443" fill="#2B2B2B"/>
<rect x="131.642" y="67.5469" width="3.74885" height="3.7526" rx="1.87443" fill="#2B2B2B"/>
<rect x="131.642" y="84.4336" width="3.74885" height="3.7526" rx="1.87443" fill="#2B2B2B"/>
<rect x="131.642" y="101.32" width="3.74885" height="3.7526" rx="1.87443" fill="#2B2B2B"/>
<rect x="131.642" y="118.207" width="3.74885" height="3.7526" rx="1.87443" fill="#2B2B2B"/>
<rect x="131.642" y="135.094" width="3.74885" height="3.7526" rx="1.87443" fill="#2B2B2B"/>
<rect x="131.642" y="151.98" width="3.74885" height="3.7526" rx="1.87443" fill="#2B2B2B"/>
<rect x="131.642" y="168.867" width="3.74885" height="3.7526" rx="1.87443" fill="#2B2B2B"/>
<rect x="131.642" y="185.754" width="3.74885" height="3.7526" rx="1.87443" fill="#2B2B2B"/>
<rect x="131.642" y="202.641" width="3.74885" height="3.7526" rx="1.87443" fill="#2B2B2B"/>
<rect x="131.642" y="219.527" width="3.74885" height="3.7526" rx="1.87443" fill="#2B2B2B"/>
<rect x="148.511" width="3.74885" height="3.7526" rx="1.87443" fill="#2B2B2B"/>
<rect x="148.511" y="16.8867" width="3.74885" height="3.7526" rx="1.87443" fill="#2B2B2B"/>
<rect x="148.511" y="33.7734" width="3.74885" height="3.7526" rx="1.87443" fill="#2B2B2B"/>
<rect x="148.511" y="50.6602" width="3.74885" height="3.7526" rx="1.87443" fill="#2B2B2B"/>
<rect x="148.511" y="67.5469" width="3.74885" height="3.7526" rx="1.87443" fill="#2B2B2B"/>
<rect x="148.511" y="84.4336" width="3.74885" height="3.7526" rx="1.87443" fill="#2B2B2B"/>
<rect x="148.511" y="101.32" width="3.74885" height="3.7526" rx="1.87443" fill="#2B2B2B"/>
<rect x="148.511" y="118.207" width="3.74885" height="3.7526" rx="1.87443" fill="#2B2B2B"/>
<rect x="148.511" y="135.094" width="3.74885" height="3.7526" rx="1.87443" fill="#2B2B2B"/>
<rect x="148.511" y="151.98" width="3.74885" height="3.7526" rx="1.87443" fill="#2B2B2B"/>
<rect x="148.511" y="168.867" width="3.74885" height="3.7526" rx="1.87443" fill="#2B2B2B"/>
<rect x="148.511" y="185.754" width="3.74885" height="3.7526" rx="1.87443" fill="#2B2B2B"/>
<rect x="148.511" y="202.641" width="3.74885" height="3.7526" rx="1.87443" fill="#2B2B2B"/>
<rect x="148.511" y="219.527" width="3.74885" height="3.7526" rx="1.87443" fill="#2B2B2B"/>
<rect x="165.382" width="3.74885" height="3.7526" rx="1.87443" fill="#2B2B2B"/>
<rect x="165.382" y="16.8867" width="3.74885" height="3.7526" rx="1.87443" fill="#2B2B2B"/>
<rect x="165.382" y="33.7734" width="3.74885" height="3.7526" rx="1.87443" fill="#2B2B2B"/>
<rect x="165.382" y="50.6602" width="3.74885" height="3.7526" rx="1.87443" fill="#2B2B2B"/>
<rect x="165.382" y="67.5469" width="3.74885" height="3.7526" rx="1.87443" fill="#2B2B2B"/>
<rect x="165.382" y="84.4336" width="3.74885" height="3.7526" rx="1.87443" fill="#2B2B2B"/>
<rect x="165.382" y="101.32" width="3.74885" height="3.7526" rx="1.87443" fill="#2B2B2B"/>
<rect x="165.382" y="118.207" width="3.74885" height="3.7526" rx="1.87443" fill="#2B2B2B"/>
<rect x="165.382" y="135.094" width="3.74885" height="3.7526" rx="1.87443" fill="#2B2B2B"/>
<rect x="165.382" y="151.98" width="3.74885" height="3.7526" rx="1.87443" fill="#2B2B2B"/>
<rect x="165.382" y="168.867" width="3.74885" height="3.7526" rx="1.87443" fill="#2B2B2B"/>
<rect x="165.382" y="185.754" width="3.74885" height="3.7526" rx="1.87443" fill="#2B2B2B"/>
<rect x="165.382" y="202.641" width="3.74885" height="3.7526" rx="1.87443" fill="#2B2B2B"/>
<rect x="165.382" y="219.527" width="3.74885" height="3.7526" rx="1.87443" fill="#2B2B2B"/>
<rect x="182.251" width="3.74885" height="3.7526" rx="1.87443" fill="#2B2B2B"/>
<rect x="182.251" y="16.8867" width="3.74885" height="3.7526" rx="1.87443" fill="#2B2B2B"/>
<rect x="182.251" y="33.7734" width="3.74885" height="3.7526" rx="1.87443" fill="#2B2B2B"/>
<rect x="182.251" y="50.6602" width="3.74885" height="3.7526" rx="1.87443" fill="#2B2B2B"/>
<rect x="182.251" y="67.5469" width="3.74885" height="3.7526" rx="1.87443" fill="#2B2B2B"/>
<rect x="182.251" y="84.4336" width="3.74885" height="3.7526" rx="1.87443" fill="#2B2B2B"/>
<rect x="182.251" y="101.32" width="3.74885" height="3.7526" rx="1.87443" fill="#2B2B2B"/>
<rect x="182.251" y="118.207" width="3.74885" height="3.7526" rx="1.87443" fill="#2B2B2B"/>
<rect x="182.251" y="135.094" width="3.74885" height="3.7526" rx="1.87443" fill="#2B2B2B"/>
<rect x="182.251" y="151.98" width="3.74885" height="3.7526" rx="1.87443" fill="#2B2B2B"/>
<rect x="182.251" y="168.867" width="3.74885" height="3.7526" rx="1.87443" fill="#2B2B2B"/>
<rect x="182.251" y="185.754" width="3.74885" height="3.7526" rx="1.87443" fill="#2B2B2B"/>
<rect x="182.251" y="202.641" width="3.74885" height="3.7526" rx="1.87443" fill="#2B2B2B"/>
<rect x="182.251" y="219.527" width="3.74885" height="3.7526" rx="1.87443" fill="#2B2B2B"/>
<rect width="3.74885" height="3.7526" rx="1.87443" fill="#2B2B2B"/>
<rect y="16.8867" width="3.74885" height="3.7526" rx="1.87443" fill="#2B2B2B"/>
<rect y="33.7734" width="3.74885" height="3.7526" rx="1.87443" fill="#2B2B2B"/>
<rect y="50.6602" width="3.74885" height="3.7526" rx="1.87443" fill="#2B2B2B"/>
<rect y="67.5469" width="3.74885" height="3.7526" rx="1.87443" fill="#2B2B2B"/>
<rect y="84.4336" width="3.74885" height="3.7526" rx="1.87443" fill="#2B2B2B"/>
<rect y="101.32" width="3.74885" height="3.7526" rx="1.87443" fill="#2B2B2B"/>
<rect y="118.207" width="3.74885" height="3.7526" rx="1.87443" fill="#2B2B2B"/>
<rect y="135.094" width="3.74885" height="3.7526" rx="1.87443" fill="#2B2B2B"/>
<rect y="151.98" width="3.74885" height="3.7526" rx="1.87443" fill="#2B2B2B"/>
<rect y="168.867" width="3.74885" height="3.7526" rx="1.87443" fill="#2B2B2B"/>
<rect y="185.754" width="3.74885" height="3.7526" rx="1.87443" fill="#2B2B2B"/>
<rect y="202.641" width="3.74885" height="3.7526" rx="1.87443" fill="#2B2B2B"/>
<rect y="219.527" width="3.74885" height="3.7526" rx="1.87443" fill="#2B2B2B"/>
<rect x="16.8702" width="3.74885" height="3.7526" rx="1.87443" fill="#2B2B2B"/>
<rect x="16.8702" y="16.8867" width="3.74885" height="3.7526" rx="1.87443" fill="#2B2B2B"/>
<rect x="16.8702" y="33.7734" width="3.74885" height="3.7526" rx="1.87443" fill="#2B2B2B"/>
<rect x="16.8702" y="50.6602" width="3.74885" height="3.7526" rx="1.87443" fill="#2B2B2B"/>
<rect x="16.8702" y="67.5469" width="3.74885" height="3.7526" rx="1.87443" fill="#2B2B2B"/>
<rect x="16.8702" y="84.4336" width="3.74885" height="3.7526" rx="1.87443" fill="#2B2B2B"/>
<rect x="16.8702" y="101.32" width="3.74885" height="3.7526" rx="1.87443" fill="#2B2B2B"/>
<rect x="16.8702" y="118.207" width="3.74885" height="3.7526" rx="1.87443" fill="#2B2B2B"/>
<rect x="16.8702" y="135.094" width="3.74885" height="3.7526" rx="1.87443" fill="#2B2B2B"/>
<rect x="16.8702" y="151.98" width="3.74885" height="3.7526" rx="1.87443" fill="#2B2B2B"/>
<rect x="16.8702" y="168.867" width="3.74885" height="3.7526" rx="1.87443" fill="#2B2B2B"/>
<rect x="16.8702" y="185.754" width="3.74885" height="3.7526" rx="1.87443" fill="#2B2B2B"/>
<rect x="16.8702" y="202.641" width="3.74885" height="3.7526" rx="1.87443" fill="#2B2B2B"/>
<rect x="16.8702" y="219.527" width="3.74885" height="3.7526" rx="1.87443" fill="#2B2B2B"/>
<rect x="33.7398" width="3.74885" height="3.7526" rx="1.87443" fill="#2B2B2B"/>
<rect x="33.7398" y="16.8867" width="3.74885" height="3.7526" rx="1.87443" fill="#2B2B2B"/>
<rect x="33.7398" y="33.7734" width="3.74885" height="3.7526" rx="1.87443" fill="#2B2B2B"/>
<rect x="33.7398" y="50.6602" width="3.74885" height="3.7526" rx="1.87443" fill="#2B2B2B"/>
<rect x="33.7398" y="67.5469" width="3.74885" height="3.7526" rx="1.87443" fill="#2B2B2B"/>
<rect x="33.7398" y="84.4336" width="3.74885" height="3.7526" rx="1.87443" fill="#2B2B2B"/>
<rect x="33.7398" y="101.32" width="3.74885" height="3.7526" rx="1.87443" fill="#2B2B2B"/>
<rect x="33.7398" y="118.207" width="3.74885" height="3.7526" rx="1.87443" fill="#2B2B2B"/>
<rect x="33.7398" y="135.094" width="3.74885" height="3.7526" rx="1.87443" fill="#2B2B2B"/>
<rect x="33.7398" y="151.98" width="3.74885" height="3.7526" rx="1.87443" fill="#2B2B2B"/>
<rect x="33.7398" y="168.867" width="3.74885" height="3.7526" rx="1.87443" fill="#2B2B2B"/>
<rect x="33.7398" y="185.754" width="3.74885" height="3.7526" rx="1.87443" fill="#2B2B2B"/>
<rect x="33.7398" y="202.641" width="3.74885" height="3.7526" rx="1.87443" fill="#2B2B2B"/>
<rect x="33.7398" y="219.527" width="3.74885" height="3.7526" rx="1.87443" fill="#2B2B2B"/>
<rect x="50.6093" width="3.74885" height="3.7526" rx="1.87443" fill="#2B2B2B"/>
<rect x="50.6093" y="16.8867" width="3.74885" height="3.7526" rx="1.87443" fill="#2B2B2B"/>
<rect x="50.6093" y="33.7734" width="3.74885" height="3.7526" rx="1.87443" fill="#2B2B2B"/>
<rect x="50.6093" y="50.6602" width="3.74885" height="3.7526" rx="1.87443" fill="#2B2B2B"/>
<rect x="50.6093" y="67.5469" width="3.74885" height="3.7526" rx="1.87443" fill="#2B2B2B"/>
<rect x="50.6093" y="84.4336" width="3.74885" height="3.7526" rx="1.87443" fill="#2B2B2B"/>
<rect x="50.6093" y="101.32" width="3.74885" height="3.7526" rx="1.87443" fill="#2B2B2B"/>
<rect x="50.6093" y="118.207" width="3.74885" height="3.7526" rx="1.87443" fill="#2B2B2B"/>
<rect x="50.6093" y="135.094" width="3.74885" height="3.7526" rx="1.87443" fill="#2B2B2B"/>
<rect x="50.6093" y="151.98" width="3.74885" height="3.7526" rx="1.87443" fill="#2B2B2B"/>
<rect x="50.6093" y="168.867" width="3.74885" height="3.7526" rx="1.87443" fill="#2B2B2B"/>
<rect x="50.6093" y="185.754" width="3.74885" height="3.7526" rx="1.87443" fill="#2B2B2B"/>
<rect x="50.6093" y="202.641" width="3.74885" height="3.7526" rx="1.87443" fill="#2B2B2B"/>
<rect x="50.6093" y="219.527" width="3.74885" height="3.7526" rx="1.87443" fill="#2B2B2B"/>
<rect x="67.4796" width="3.74885" height="3.7526" rx="1.87443" fill="#2B2B2B"/>
<rect x="67.4796" y="16.8867" width="3.74885" height="3.7526" rx="1.87443" fill="#2B2B2B"/>
<rect x="67.4796" y="33.7734" width="3.74885" height="3.7526" rx="1.87443" fill="#2B2B2B"/>
<rect x="67.4796" y="50.6602" width="3.74885" height="3.7526" rx="1.87443" fill="#2B2B2B"/>
<rect x="67.4796" y="67.5469" width="3.74885" height="3.7526" rx="1.87443" fill="#2B2B2B"/>
<rect x="67.4796" y="84.4336" width="3.74885" height="3.7526" rx="1.87443" fill="#2B2B2B"/>
<rect x="67.4796" y="101.32" width="3.74885" height="3.7526" rx="1.87443" fill="#2B2B2B"/>
<rect x="67.4796" y="118.207" width="3.74885" height="3.7526" rx="1.87443" fill="#2B2B2B"/>
<rect x="67.4796" y="135.094" width="3.74885" height="3.7526" rx="1.87443" fill="#2B2B2B"/>
<rect x="67.4796" y="151.98" width="3.74885" height="3.7526" rx="1.87443" fill="#2B2B2B"/>
<rect x="67.4796" y="168.867" width="3.74885" height="3.7526" rx="1.87443" fill="#2B2B2B"/>
<rect x="67.4796" y="185.754" width="3.74885" height="3.7526" rx="1.87443" fill="#2B2B2B"/>
<rect x="67.4796" y="202.641" width="3.74885" height="3.7526" rx="1.87443" fill="#2B2B2B"/>
<rect x="67.4796" y="219.527" width="3.74885" height="3.7526" rx="1.87443" fill="#2B2B2B"/>
<rect x="84.3492" width="3.74885" height="3.7526" rx="1.87443" fill="#2B2B2B"/>
<rect x="84.3492" y="16.8867" width="3.74885" height="3.7526" rx="1.87443" fill="#2B2B2B"/>
<rect x="84.3492" y="33.7734" width="3.74885" height="3.7526" rx="1.87443" fill="#2B2B2B"/>
<rect x="84.3492" y="50.6602" width="3.74885" height="3.7526" rx="1.87443" fill="#2B2B2B"/>
<rect x="84.3492" y="67.5469" width="3.74885" height="3.7526" rx="1.87443" fill="#2B2B2B"/>
<rect x="84.3492" y="84.4336" width="3.74885" height="3.7526" rx="1.87443" fill="#2B2B2B"/>
<rect x="84.3492" y="101.32" width="3.74885" height="3.7526" rx="1.87443" fill="#2B2B2B"/>
<rect x="84.3492" y="118.207" width="3.74885" height="3.7526" rx="1.87443" fill="#2B2B2B"/>
<rect x="84.3492" y="135.094" width="3.74885" height="3.7526" rx="1.87443" fill="#2B2B2B"/>
<rect x="84.3492" y="151.98" width="3.74885" height="3.7526" rx="1.87443" fill="#2B2B2B"/>
<rect x="84.3492" y="168.867" width="3.74885" height="3.7526" rx="1.87443" fill="#2B2B2B"/>
<rect x="84.3492" y="185.754" width="3.74885" height="3.7526" rx="1.87443" fill="#2B2B2B"/>
<rect x="84.3492" y="202.641" width="3.74885" height="3.7526" rx="1.87443" fill="#2B2B2B"/>
<rect x="84.3492" y="219.527" width="3.74885" height="3.7526" rx="1.87443" fill="#2B2B2B"/>
</svg>
